<svg width="190" height="167" viewBox="0 0 190 167" fill="none" xmlns="http://www.w3.org/2000/svg">
<path d="M47.2372 31.8323C47.2372 39.4798 40.6216 45.7379 32.3864 45.7379C24.1512 45.7379 17.5356 39.4798 17.5356 31.8323C17.5356 24.1847 24.1512 17.9266 32.3864 17.9266C40.6216 17.9266 47.2372 24.1847 47.2372 31.8323Z" fill="#C4C4C4" fill-opacity="0.26" stroke="black" stroke-width="1.10145"/>
<path d="M80.894 48.05H72.2576V81.4109H86.6515V53.6101C86.6515 50.539 84.0741 48.05 80.894 48.05Z" fill="black"/>
<path d="M72.2576 48.05H66.5C63.3199 48.05 60.7425 50.539 60.7425 53.6101V81.4109H78.0152V53.6101C78.0152 50.539 75.4378 48.05 72.2576 48.05Z" fill="black"/>
<path d="M140.917 127.838L123.644 116.298L132.28 140.349H140.917V127.838Z" fill="#18191F"/>
<path d="M6.47725 127.838V140.349H132.28V106.568L6.47725 127.838Z" fill="#18191F"/>
<path d="M140.917 73.2064H102.053L132.28 127.838H140.917V73.2064Z" fill="#FFC60B"/>
<path d="M6.47725 73.2064H132.28V127.838H6.47725V73.2064Z" fill="#FFC60B"/>
<path d="M136.599 68.9006L127.962 73.0708L136.599 77.2409H145.235V68.9006H136.599Z" fill="#333333"/>
<path d="M2.15909 68.9006H136.599V77.2409H2.15909V68.9006Z" fill="#4A4A4A"/>
<path d="M43.9015 98.0915H35.2652L41.0227 107.822H49.6591V103.652C49.6591 100.594 47.0682 98.0915 43.9015 98.0915Z" fill="#623221"/>
<path d="M41.0227 103.652V107.822H23.75V103.652C23.75 100.594 26.3409 98.0915 29.5076 98.0915H35.2652C38.4318 98.0915 41.0227 100.594 41.0227 103.652Z" fill="#7D402B"/>
<path d="M80.894 98.0915H72.2576L78.3031 107.822H86.9394L86.6515 103.652C86.6515 100.594 84.0606 98.0915 80.894 98.0915Z" fill="#623221"/>
<path d="M78.0152 103.652V107.822H60.7425V103.652C60.7425 100.594 63.3334 98.0915 66.5 98.0915H72.2576C75.4243 98.0915 78.0152 100.594 78.0152 103.652Z" fill="#7D402B"/>
<path d="M117.886 98.0915H109.25L115.008 107.822H123.644V103.652C123.644 100.594 121.053 98.0915 117.886 98.0915Z" fill="#623221"/>
<path d="M115.008 103.652V107.822H97.7349V103.652C97.7349 100.594 100.326 98.0915 103.492 98.0915H109.25C112.417 98.0915 115.008 100.594 115.008 103.652Z" fill="#7D402B"/>
<path d="M75.8561 2.22437C71.8629 2.22437 68.3791 4.3192 66.5113 7.43158C66.0581 7.2752 65.5701 7.18615 65.0607 7.18615C62.6755 7.18615 60.7425 9.05293 60.7425 11.3563V27.1995H86.6516V12.6497C86.6516 6.89186 81.8184 2.22437 75.8561 2.22437Z" fill="#C96F3D"/>
<path d="M73.6969 14.6891V42.7679L86.6515 29.9796V27.1995C86.6515 20.2895 80.8512 14.6891 73.6969 14.6891Z" fill="#FFD0A3"/>
<path d="M73.697 14.6891C66.5428 14.6891 60.7425 20.2895 60.7425 27.1995V29.9796L78.0152 42.7679V27.1995C78.0152 20.2895 76.0821 14.6891 73.697 14.6891Z" fill="#FFE8D1"/>
<path d="M79.0823 29.9795C78.7798 29.5419 78.42 29.1444 78.0151 28.7947L73.6969 48.05C80.8512 48.05 86.6515 42.4486 86.6515 35.5397V29.9795H79.0823Z" fill="#B25B3D"/>
<path d="M78.0152 35.5397V28.7947C76.8693 27.8033 75.3568 27.1995 73.697 27.1995C71.4513 27.1995 69.4733 28.3028 68.3105 29.9795H60.7425V35.5397C60.7425 42.4486 66.5428 48.05 73.697 48.05C76.0821 48.05 78.0152 42.4486 78.0152 35.5397Z" fill="#C96F3D"/>
<path d="M145.235 66.9545H88.8106V53.7492C88.8106 50.4891 86.6853 47.7003 83.7041 46.6024C86.8326 43.9266 88.8106 40.0225 88.8106 35.6786V12.7886C88.8106 5.89054 82.9991 0.278259 75.8561 0.278259C71.7819 0.278259 67.9484 2.15264 65.5172 5.25525C65.3654 5.24439 65.2124 5.23896 65.0606 5.23896C61.4891 5.23896 58.5833 8.0451 58.5833 11.4941V35.6776C58.5833 40.0225 60.5614 43.9266 63.6898 46.6024C61.3699 47.456 59.5696 49.3347 58.8847 51.663L40.1591 51.8487C39.0076 51.4784 37.2803 50.8757 37.2803 48.0956C36.5606 47.2616 37.1364 47.5048 36.2727 46.5666L36.1288 48.0956H37.2803C37.4242 48.3737 36.8485 46.9836 36.2727 46.5666C33.8258 46.5666 32.9621 46.3146 32.9621 49.7637C32.9621 53.2127 35.58 55.8331 39.1515 55.8331H58.5833V66.9534H2.15909C0.967093 66.9534 0 67.8874 0 69.0385V77.3787C0 78.531 0.967093 79.4638 2.15909 79.4638H4.31818V140.487C4.31818 141.639 5.28528 142.572 6.47727 142.572H140.917C142.11 142.572 143.076 141.639 143.076 140.487V79.4638H145.235C146.428 79.4638 147.394 78.531 147.394 77.3787V69.0385C147.394 67.8874 146.428 66.9545 145.235 66.9545ZM62.9015 27.3384C62.9015 21.5893 67.7437 16.9131 73.697 16.9131C79.6502 16.9131 84.4924 21.5893 84.4924 27.3384V28.0334H80.1338C78.5066 26.2742 76.1766 25.2534 73.697 25.2534C71.2174 25.2534 68.8874 26.2742 67.2602 28.0334H62.9015V27.3384ZM62.9015 11.4952C62.9015 10.3452 63.8697 9.41016 65.0606 9.41016C65.3013 9.41016 65.5442 9.45143 65.7848 9.53505C66.7665 9.87387 67.8573 9.48618 68.3791 8.61632C69.9219 6.04584 72.7872 4.44838 75.8561 4.44838C80.6184 4.44838 84.4924 8.18954 84.4924 12.7886V17.1368C81.7475 14.4284 77.923 12.743 73.697 12.743C69.471 12.743 65.6465 14.4284 62.9015 17.1368V11.4952ZM62.9015 35.6786V32.2036H68.3105C69.0313 32.2036 69.7049 31.856 70.1052 31.2783C70.9104 30.1163 72.2531 29.4235 73.697 29.4235C75.1409 29.4235 76.4836 30.1163 77.2887 31.2783C77.6891 31.856 78.3615 32.2036 79.0823 32.2036H84.4924V35.6786C84.4924 41.4267 79.6502 46.1039 73.697 46.1039C67.7437 46.1039 62.9015 41.4267 62.9015 35.6786ZM62.9015 53.7492C62.9015 51.8324 64.5152 50.2741 66.5 50.2741H80.894C82.8787 50.2741 84.4924 51.8324 84.4924 53.7492V66.9545H62.9015V53.7492ZM8.63636 130.062H21.5909V138.403H8.63636V130.062ZM25.9091 103.791C25.9091 101.874 27.5228 100.315 29.5076 100.315H43.9015C45.8863 100.315 47.5 101.874 47.5 103.791V105.876H25.9091V103.791ZM47.5 96.9837C46.4193 96.4494 45.197 96.1454 43.9015 96.1454H29.5076C28.2121 96.1454 26.9898 96.4483 25.9091 96.9837V91.2802C25.9091 89.3635 27.5228 87.8051 29.5076 87.8051H43.9015C45.8863 87.8051 47.5 89.3635 47.5 91.2802V96.9837ZM25.9091 110.046H47.5V125.892H25.9091V110.046ZM47.5 130.062V138.403H25.9091V130.062H47.5ZM62.9015 103.791C62.9015 101.874 64.5152 100.315 66.5 100.315H80.894C82.8787 100.315 84.4924 101.874 84.4924 103.791V105.876H62.9015V103.791ZM84.4924 96.9837C83.4118 96.4494 82.1894 96.1454 80.894 96.1454H66.5C65.2046 96.1454 63.9822 96.4483 62.9015 96.9837V91.2802C62.9015 89.3635 64.5152 87.8051 66.5 87.8051H80.894C82.8787 87.8051 84.4924 89.3635 84.4924 91.2802V96.9837ZM62.9015 110.046H84.4924V125.892H62.9015V110.046ZM84.4924 130.062V138.403H62.9015V130.062H84.4924ZM99.894 103.791C99.894 101.874 101.508 100.315 103.492 100.315H117.886C119.871 100.315 121.485 101.874 121.485 103.791V105.876H99.894V103.791ZM121.485 96.9837C120.404 96.4494 119.182 96.1454 117.886 96.1454H103.492C102.197 96.1454 100.975 96.4483 99.894 96.9837V91.2802C99.894 89.3635 101.508 87.8051 103.492 87.8051H117.886C119.871 87.8051 121.485 89.3635 121.485 91.2802V96.9837ZM99.894 110.046H121.485V125.892H99.894V110.046ZM121.485 130.062V138.403H99.894V130.062H121.485ZM95.5758 138.403H88.8106V130.062H95.5758V138.403ZM58.5833 138.403H51.8182V130.062H58.5833V138.403ZM125.803 138.403V130.062H138.758V138.403H125.803ZM138.758 125.892H125.803V91.2802C125.803 87.0645 122.252 83.635 117.886 83.635H103.492C99.127 83.635 95.5758 87.0645 95.5758 91.2802V125.892H88.8106V91.2802C88.8106 87.0645 85.2594 83.635 80.894 83.635H66.5C62.1346 83.635 58.5833 87.0645 58.5833 91.2802V125.892H51.8182V91.2802C51.8182 87.0645 48.2669 83.635 43.9015 83.635H29.5076C25.1422 83.635 21.5909 87.0645 21.5909 91.2802V125.892H8.63636V79.4649H138.758V125.892ZM143.076 75.2948H4.31818V71.1246H143.076V75.2948Z" fill="black"/>
<path d="M24.9354 33.2014L28.7558 39.6367L30.9564 38.8209L28.6896 33.1183L24.9354 33.2014Z" fill="#FFC60B"/>
<path d="M23.6283 34.9947L25.8951 40.6973L28.8292 39.6096L26.1091 32.7664L23.6283 34.9947Z" fill="#FFC60B"/>
<path d="M26.6955 31.066L24.4949 31.8817L26.5019 33.7549L28.7025 32.9391L28.2492 31.7986C27.9998 31.1713 27.3007 30.8416 26.6955 31.066Z" fill="#E0E0E2"/>
<path d="M26.0486 32.6143C25.7992 31.987 25.1001 31.6573 24.4949 31.8817L23.7614 32.1536C23.1562 32.3779 22.8651 33.0747 23.1145 33.702L23.5678 34.8425L26.5019 33.7548L26.0486 32.6143Z" fill="#E0E0E2"/>
<path d="M24.6876 40.9411L25.2377 40.7371L25.4644 41.3074C25.5895 41.6222 25.9375 41.7863 26.2412 41.6737L31.3759 39.7703C31.6796 39.6577 31.8245 39.3109 31.6994 38.9961L28.9793 32.1529C28.6043 31.2096 27.5588 30.7166 26.6488 31.0539L23.7147 32.1416C22.8046 32.479 22.3693 33.5209 22.7443 34.4642L22.9709 35.0345L22.4208 35.2384C21.5108 35.5758 21.0754 36.6177 21.4504 37.5611L22.3571 39.8421C22.7319 40.7851 23.7775 41.2784 24.6876 40.9411ZM26.338 40.3293L24.5246 35.7671L28.559 34.2716L30.3724 38.8337L26.338 40.3293ZM23.8446 34.0564C23.7195 33.7418 23.8646 33.3946 24.168 33.2822L27.1022 32.1945C27.4056 32.082 27.7539 32.2463 27.879 32.5608L28.1057 33.1311L24.0712 34.6266L23.8446 34.0564ZM22.5507 37.1532C22.4257 36.8386 22.5707 36.4915 22.8742 36.379L23.4243 36.175L24.7844 39.5966L24.2342 39.8005C23.9308 39.913 23.5823 39.7485 23.4574 39.4342L22.5507 37.1532Z" fill="black"/>
<path d="M71.394 31.8322C72.0319 32.6429 72.6377 33.4573 73.502 33.5802C74.4488 33.7148 74.987 33.0127 75.7122 32.2555" stroke="black" stroke-width="1.10145" stroke-linecap="round" stroke-linejoin="round"/>
<path d="M39.803 27.7385L38.7173 27.4772C38.1178 27.3328 37.4874 27.775 37.3092 28.4649L40.5661 29.249C40.7442 28.5592 40.4025 27.8829 39.803 27.7385Z" fill="#18191F"/>
<path d="M43.1079 35.1303L42.8903 31.5122C42.8279 30.473 42.1933 29.6408 41.2993 29.4255L38.9397 28.8574L36.5759 28.2882C35.6819 28.073 34.7171 28.5201 34.1567 29.4093L32.2057 32.5053C31.4337 33.7305 31.9227 35.3495 33.1545 35.6461C33.7674 35.7937 34.4308 35.5653 34.9076 35.0428L35.3746 34.531C35.6358 34.2448 35.9992 34.1197 36.3349 34.2006L37.4884 34.4783L38.638 34.7551C38.9736 34.8359 39.2337 35.1111 39.3252 35.4822L39.4887 36.1458C39.6556 36.8234 40.1304 37.3257 40.7433 37.4733C41.9751 37.7699 43.194 36.5621 43.1079 35.1303Z" fill="#FFC60B"/>
<path d="M35.8364 34.9652C36.2361 35.0614 36.6564 34.7666 36.7752 34.3067C36.8939 33.8468 36.6661 33.3959 36.2664 33.2997C35.8667 33.2034 35.4464 33.4983 35.3277 33.9582C35.2089 34.4181 35.4367 34.8689 35.8364 34.9652Z" fill="#18191F"/>
<path d="M38.7064 35.6562C39.1062 35.7524 39.5264 35.4576 39.6452 34.9977C39.7639 34.5378 39.5361 34.087 39.1364 33.9907C38.7367 33.8945 38.3164 34.1893 38.1977 34.6492C38.079 35.1091 38.3067 35.56 38.7064 35.6562Z" fill="#18191F"/>
<path d="M41.5489 32.3698C41.6734 32.0682 41.565 31.7297 41.3069 31.6137C41.0488 31.4977 40.7387 31.6481 40.6142 31.9496C40.4898 32.2512 40.5982 32.5897 40.8563 32.7057C41.1144 32.8217 41.4245 32.6713 41.5489 32.3698Z" fill="white"/>
<path d="M38.9454 32.2555C39.2202 32.3216 39.5092 32.119 39.5908 31.8028C39.6724 31.4866 39.5158 31.1766 39.241 31.1105C38.9662 31.0443 38.6773 31.247 38.5957 31.5632C38.514 31.8794 38.6706 32.1893 38.9454 32.2555Z" fill="white"/>
<path d="M36.7922 30.5747L36.6113 30.5311L36.665 30.323C36.7392 30.0355 36.5969 29.7537 36.3471 29.6936C36.0972 29.6334 35.8346 29.8177 35.7604 30.1051L35.7066 30.3133L35.5257 30.2697C35.2758 30.2096 35.0132 30.3938 34.939 30.6813C34.8647 30.9687 35.0071 31.2505 35.2569 31.3107L35.4379 31.3542L35.3841 31.5624C35.3099 31.8499 35.4523 32.1316 35.7021 32.1918C35.9519 32.252 36.2146 32.0677 36.2888 31.7802L36.3425 31.5721L36.5235 31.6156C36.7733 31.6758 37.036 31.4915 37.1102 31.2041C37.1844 30.9167 37.042 30.6349 36.7922 30.5747Z" fill="white"/>
<path d="M43.3432 35.0908L43.3056 34.465C43.2969 34.3198 43.1845 34.2198 43.0544 34.2417C42.9244 34.2635 42.8261 34.399 42.8348 34.5442L42.8724 35.17C42.9082 35.7651 42.6895 36.3435 42.2724 36.7568C41.8553 37.1701 41.3224 37.3364 40.8105 37.2131C40.2721 37.0835 39.8631 36.6507 39.7164 36.0555L39.5976 35.5734C39.7226 35.4311 39.8192 35.2538 39.8713 35.0521C40.0269 34.4495 39.7273 33.8566 39.2035 33.7305C38.7577 33.6231 38.2911 33.8882 38.0661 34.3411L37.041 34.0943C37.0625 33.5924 36.7794 33.1468 36.3336 33.0394C35.8098 32.9133 35.2571 33.301 35.1015 33.9037C35.0494 34.1053 35.0485 34.3057 35.0897 34.488L34.7504 34.8598C34.3315 35.3189 33.76 35.5155 33.2216 35.3859C32.7097 35.2626 32.3201 34.8742 32.1527 34.3202C31.9854 33.7661 32.0734 33.1563 32.3943 32.6471L34.3453 29.5511C34.8439 28.7599 35.7133 28.357 36.5087 28.5485L41.2321 29.6858C42.0276 29.8773 42.5993 30.6272 42.6549 31.5518L42.6926 32.1778C42.7013 32.323 42.8138 32.423 42.9438 32.401C43.0738 32.3792 43.1721 32.2437 43.1634 32.0985L43.1257 31.4726C43.057 30.3294 42.35 29.4022 41.3665 29.1653L40.8395 29.0384C40.9149 28.3039 40.5163 27.6339 39.8701 27.4783L39.5535 27.402L39.6039 27.2069C39.8021 26.4392 39.4205 25.6839 38.7533 25.5233L36.3785 24.9515C35.9608 24.8509 35.7218 24.378 35.8459 23.8973C35.9701 23.4166 36.4109 23.1074 36.8287 23.208L40.1902 24.0173C40.3151 24.0474 40.4464 23.9553 40.4835 23.8115C40.5206 23.6678 40.4494 23.5269 40.3245 23.4969L36.9631 22.6875C36.2959 22.5268 35.5918 23.0207 35.3936 23.7884C35.1954 24.5561 35.577 25.3113 36.2442 25.472L38.6189 26.0438C39.0367 26.1443 39.2756 26.6173 39.1515 27.098L39.1011 27.2931L38.7845 27.2169C38.1383 27.0613 37.4606 27.4722 37.1701 28.1549L36.6431 28.028C35.6596 27.7912 34.5846 28.2894 33.9681 29.2677L32.0171 32.3637C31.602 33.0224 31.4881 33.8112 31.7046 34.5278C31.9211 35.2445 32.4251 35.747 33.0873 35.9064C33.7837 36.0741 34.523 35.8197 35.0648 35.2259L35.318 34.9485C35.4356 35.0836 35.5892 35.1821 35.7692 35.2254C36.2151 35.3328 36.6817 35.0677 36.9067 34.6148L37.9317 34.8616C37.9102 35.3635 38.1934 35.8091 38.6392 35.9165C38.8192 35.9598 39.0026 35.9424 39.1722 35.8765L39.2609 36.2362C39.4506 37.0062 39.9797 37.5659 40.6761 37.7336C41.3383 37.8931 42.0276 37.6779 42.5671 37.1433C43.1066 36.6087 43.3895 35.8606 43.3432 35.0908ZM38.6501 27.7374L39.7358 27.9988C40.1314 28.094 40.3856 28.4837 40.3769 28.9271L37.6328 28.2663C37.8406 27.8709 38.2545 27.6421 38.6501 27.7374ZM35.9036 34.7049C35.6292 34.6389 35.4723 34.3283 35.5538 34.0126C35.6353 33.6969 35.9248 33.4939 36.1992 33.5599C36.4736 33.626 36.6305 33.9365 36.549 34.2522C36.4675 34.5679 36.1779 34.771 35.9036 34.7049ZM38.4238 34.7037C38.5053 34.388 38.7948 34.1849 39.0692 34.251C39.3436 34.317 39.5005 34.6276 39.419 34.9433C39.3375 35.259 39.048 35.462 38.7736 35.396C38.4992 35.3299 38.3423 35.0193 38.4238 34.7037Z" fill="black"/>
<path d="M40.36 31.9865C40.2415 32.4457 40.4697 32.8975 40.8688 32.9935C41.2679 33.0896 41.689 32.7942 41.8075 32.3351C41.9261 31.8759 41.6979 31.4242 41.2988 31.3281C40.8997 31.232 40.4786 31.5274 40.36 31.9865ZM41.3552 32.2262C41.3107 32.3984 41.1528 32.5091 41.0032 32.4731C40.8535 32.4371 40.7679 32.2677 40.8124 32.0955C40.8568 31.9233 41.0148 31.8125 41.1644 31.8485C41.3141 31.8846 41.3996 32.054 41.3552 32.2262Z" fill="black"/>
<path d="M38.3698 31.5073C38.2513 31.9665 38.4795 32.4182 38.8786 32.5143C39.2777 32.6104 39.6988 32.315 39.8173 31.8558C39.9359 31.3966 39.7077 30.9449 39.3086 30.8488C38.9095 30.7527 38.4884 31.0481 38.3698 31.5073ZM39.365 31.7469C39.3205 31.9191 39.1626 32.0299 39.013 31.9938C38.8633 31.9578 38.7777 31.7884 38.8222 31.6162C38.8666 31.444 39.0245 31.3332 39.1742 31.3693C39.3239 31.4053 39.4094 31.5747 39.365 31.7469Z" fill="black"/>
<path d="M36.4142 29.4333C36.0548 29.3467 35.6764 29.5989 35.5486 30.0005C35.1881 29.9414 34.8196 30.2132 34.7128 30.6268C34.606 31.0403 34.7993 31.4474 35.1463 31.5587C35.0639 31.9712 35.2755 32.3654 35.6349 32.452C35.9943 32.5385 36.3728 32.2863 36.5005 31.8847C36.861 31.9438 37.2296 31.672 37.3363 31.2585C37.4431 30.8449 37.2498 30.4379 36.9028 30.3266C36.9852 29.914 36.7736 29.5198 36.4142 29.4333ZM36.884 31.1495C36.847 31.293 36.7154 31.3853 36.5907 31.3553L36.4097 31.3117C36.2848 31.2817 36.1535 31.3738 36.1164 31.5175L36.0626 31.7257C36.0256 31.8692 35.894 31.9615 35.7693 31.9315C35.6446 31.9014 35.5732 31.7603 35.6103 31.6168L35.664 31.4086C35.7011 31.2649 35.63 31.124 35.505 31.0939L35.3241 31.0503C35.1994 31.0203 35.1281 30.8791 35.1651 30.7357C35.2022 30.5922 35.3338 30.4999 35.4585 30.5299L35.6394 30.5734C35.7643 30.6035 35.8957 30.5114 35.9328 30.3677L35.9865 30.1595C36.0236 30.016 36.1552 29.9237 36.2799 29.9537C36.4046 29.9837 36.4759 30.1249 36.4389 30.2684L36.3851 30.4766C36.348 30.6203 36.4192 30.7612 36.5441 30.7913L36.725 30.8348C36.8497 30.8649 36.9211 31.006 36.884 31.1495Z" fill="black"/>
<path d="M42.773 33.2668C42.7553 33.3355 42.7622 33.4082 42.7917 33.467C42.8213 33.5255 42.8722 33.5673 42.9319 33.5817C42.9914 33.596 43.0569 33.5822 43.1115 33.544C43.1661 33.5054 43.2076 33.4444 43.2253 33.3757C43.243 33.3072 43.2361 33.2343 43.2066 33.1757C43.177 33.1172 43.1258 33.0753 43.0663 33.061C43.0066 33.0466 42.9413 33.0605 42.8868 33.0987C42.8322 33.137 42.7907 33.1983 42.773 33.2668Z" fill="black"/>
<path d="M28.2148 28.4674C28.1868 28.4741 28.1589 28.4808 28.1239 28.4601L28.0959 28.4668C27.4033 28.3131 25.7309 27.8125 24.8809 26.5894C24.7333 26.3627 24.2757 25.3948 24.7275 24.6159C24.9916 24.1444 25.3127 24.0088 25.5362 23.955C26.0671 23.8271 26.7038 23.9944 27.1524 24.3525C27.3673 23.8055 27.7994 23.41 28.3861 23.2688C28.6096 23.215 28.9591 23.1891 29.4494 23.479C30.227 23.9619 30.3005 25.0514 30.2734 25.291C30.1246 26.7837 28.8562 27.9633 28.3474 28.4063C28.2986 28.4472 28.2427 28.4606 28.2148 28.4674Z" fill="#FFC60B" stroke="#18191F" stroke-width="0.550725" stroke-linecap="round" stroke-linejoin="round"/>
<ellipse cx="70.2424" cy="22.2409" rx="1.72727" ry="2.08506" fill="black"/>
<ellipse cx="77.4395" cy="22.2409" rx="1.72727" ry="2.08506" fill="black"/>
<path d="M26.1012 163.571H19.9881L18.8523 166.38H14.6805L21.0621 151.923H25.0892L31.4914 166.38H27.2371L26.1012 163.571ZM24.9034 160.556L23.0447 155.93L21.186 160.556H24.9034ZM47.0452 155C48.4221 155 49.5166 155.413 50.3289 156.239C51.155 157.066 51.5681 158.312 51.5681 159.977V166.38H47.6442V160.618C47.6442 159.833 47.4927 159.255 47.1898 158.883C46.9007 158.511 46.4876 158.325 45.9507 158.325C45.3586 158.325 44.8836 158.532 44.5257 158.945C44.1677 159.358 43.9887 159.984 43.9887 160.824V166.38H40.0648V160.618C40.0648 159.089 39.5003 158.325 38.3713 158.325C37.7655 158.325 37.2836 158.532 36.9257 158.945C36.5677 159.358 36.3887 159.984 36.3887 160.824V166.38H32.4648V155.186H36.2028V156.363C36.6159 155.909 37.1047 155.572 37.6692 155.351C38.2474 155.117 38.8739 155 39.5485 155C40.3333 155 41.0355 155.145 41.655 155.434C42.2746 155.723 42.7771 156.164 43.1626 156.756C43.6032 156.191 44.1608 155.758 44.8355 155.455C45.5101 155.152 46.2467 155 47.0452 155ZM61.0871 155C62.106 155 63.0284 155.234 63.8545 155.702C64.6944 156.171 65.3552 156.845 65.8371 157.726C66.3328 158.594 66.5806 159.606 66.5806 160.762C66.5806 161.919 66.3328 162.938 65.8371 163.819C65.3552 164.7 64.6944 165.381 63.8545 165.863C63.0284 166.331 62.106 166.566 61.0871 166.566C59.6139 166.566 58.5125 166.132 57.7828 165.264V166.38H54.0447V151.056H57.9686V156.157C58.7259 155.386 59.7654 155 61.0871 155ZM60.261 163.447C60.9494 163.447 61.5139 163.213 61.9545 162.745C62.3951 162.263 62.6154 161.602 62.6154 160.762C62.6154 159.936 62.3951 159.289 61.9545 158.821C61.5139 158.353 60.9494 158.119 60.261 158.119C59.5726 158.119 59.0081 158.353 58.5675 158.821C58.127 159.289 57.9067 159.936 57.9067 160.762C57.9067 161.602 58.127 162.263 58.5675 162.745C59.0081 163.213 59.5726 163.447 60.261 163.447ZM79.8457 160.804C79.8457 160.831 79.8251 161.155 79.7838 161.774H71.6468C71.812 162.352 72.1287 162.8 72.5968 163.117C73.0787 163.419 73.6776 163.571 74.3936 163.571C74.9305 163.571 75.3918 163.495 75.7773 163.344C76.1765 163.192 76.5758 162.944 76.9751 162.6L79.0403 164.748C77.9526 165.96 76.3624 166.566 74.2697 166.566C72.9617 166.566 71.812 166.318 70.8207 165.822C69.8294 165.326 69.0584 164.638 68.5077 163.757C67.9707 162.876 67.7023 161.877 67.7023 160.762C67.7023 159.661 67.9639 158.676 68.487 157.809C69.024 156.928 69.7606 156.239 70.6968 155.744C71.6331 155.248 72.6863 155 73.8566 155C74.9718 155 75.9838 155.234 76.8925 155.702C77.8012 156.157 78.5171 156.825 79.0403 157.706C79.5773 158.573 79.8457 159.606 79.8457 160.804ZM73.8773 157.788C73.2715 157.788 72.762 157.96 72.349 158.305C71.9497 158.649 71.695 159.117 71.5849 159.709H76.1697C76.0595 159.117 75.7979 158.649 75.3849 158.305C74.9856 157.96 74.4831 157.788 73.8773 157.788ZM93.0962 160.804C93.0962 160.831 93.0756 161.155 93.0343 161.774H84.8973C85.0625 162.352 85.3792 162.8 85.8473 163.117C86.3292 163.419 86.9281 163.571 87.644 163.571C88.181 163.571 88.6422 163.495 89.0277 163.344C89.427 163.192 89.8263 162.944 90.2256 162.6L92.2908 164.748C91.2031 165.96 89.6129 166.566 87.5201 166.566C86.2122 166.566 85.0625 166.318 84.0712 165.822C83.0799 165.326 82.3089 164.638 81.7582 163.757C81.2212 162.876 80.9527 161.877 80.9527 160.762C80.9527 159.661 81.2143 158.676 81.7375 157.809C82.2745 156.928 83.0111 156.239 83.9473 155.744C84.8835 155.248 85.9368 155 87.1071 155C88.2223 155 89.2343 155.234 90.143 155.702C91.0517 156.157 91.7676 156.825 92.2908 157.706C92.8277 158.573 93.0962 159.606 93.0962 160.804ZM87.1277 157.788C86.5219 157.788 86.0125 157.96 85.5995 158.305C85.2002 158.649 84.9455 159.117 84.8353 159.709H89.4201C89.31 159.117 89.0484 158.649 88.6353 158.305C88.2361 157.96 87.7335 157.788 87.1277 157.788ZM106.496 155.186L101.87 166.38H97.8222L93.2167 155.186H97.2439L99.9287 162.022L102.758 155.186H106.496ZM118.649 160.804C118.649 160.831 118.629 161.155 118.587 161.774H110.45C110.616 162.352 110.932 162.8 111.4 163.117C111.882 163.419 112.481 163.571 113.197 163.571C113.734 163.571 114.195 163.495 114.581 163.344C114.98 163.192 115.379 162.944 115.779 162.6L117.844 164.748C116.756 165.96 115.166 166.566 113.073 166.566C111.765 166.566 110.616 166.318 109.624 165.822C108.633 165.326 107.862 164.638 107.311 163.757C106.774 162.876 106.506 161.877 106.506 160.762C106.506 159.661 106.767 158.676 107.291 157.809C107.828 156.928 108.564 156.239 109.5 155.744C110.437 155.248 111.49 155 112.66 155C113.775 155 114.787 155.234 115.696 155.702C116.605 156.157 117.321 156.825 117.844 157.706C118.381 158.573 118.649 159.606 118.649 160.804ZM112.681 157.788C112.075 157.788 111.566 157.96 111.153 158.305C110.753 158.649 110.499 159.117 110.388 159.709H114.973C114.863 159.117 114.601 158.649 114.188 158.305C113.789 157.96 113.287 157.788 112.681 157.788ZM124.196 156.529C124.596 156.019 125.112 155.641 125.745 155.393C126.392 155.131 127.129 155 127.955 155V158.532C127.597 158.491 127.301 158.47 127.067 158.47C126.227 158.47 125.566 158.697 125.085 159.151C124.616 159.606 124.382 160.301 124.382 161.237V166.38H120.458V155.186H124.196V156.529Z" fill="#FFC60B"/>
<path d="M24.0861 163.849H17.973L16.8371 166.658H12.6654L19.0469 152.201H23.0741L29.4763 166.658H25.2219L24.0861 163.849ZM22.8882 160.834L21.0295 156.208L19.1708 160.834H22.8882ZM45.0301 155.278C46.4069 155.278 47.5015 155.691 48.3138 156.517C49.1399 157.343 49.5529 158.589 49.5529 160.255V166.658H45.629V160.896C45.629 160.111 45.4776 159.533 45.1747 159.161C44.8855 158.789 44.4725 158.603 43.9355 158.603C43.3435 158.603 42.8685 158.81 42.5105 159.223C42.1526 159.636 41.9736 160.262 41.9736 161.102V166.658H38.0497V160.896C38.0497 159.367 37.4852 158.603 36.3562 158.603C35.7504 158.603 35.2685 158.81 34.9105 159.223C34.5526 159.636 34.3736 160.262 34.3736 161.102V166.658H30.4497V155.464H34.1877V156.641C34.6008 156.187 35.0895 155.85 35.654 155.629C36.2323 155.395 36.8587 155.278 37.5334 155.278C38.3182 155.278 39.0203 155.423 39.6399 155.712C40.2595 156.001 40.762 156.442 41.1475 157.034C41.5881 156.469 42.1457 156.035 42.8203 155.733C43.495 155.43 44.2316 155.278 45.0301 155.278ZM59.072 155.278C60.0908 155.278 61.0133 155.512 61.8394 155.98C62.6792 156.449 63.3401 157.123 63.822 158.004C64.3176 158.872 64.5655 159.884 64.5655 161.04C64.5655 162.197 64.3176 163.216 63.822 164.097C63.3401 164.978 62.6792 165.659 61.8394 166.141C61.0133 166.609 60.0908 166.843 59.072 166.843C57.5988 166.843 56.4973 166.41 55.7676 165.542V166.658H52.0296V151.334H55.9535V156.435C56.7108 155.664 57.7502 155.278 59.072 155.278ZM58.2459 163.725C58.9343 163.725 59.4988 163.491 59.9394 163.023C60.38 162.541 60.6002 161.88 60.6002 161.04C60.6002 160.214 60.38 159.567 59.9394 159.099C59.4988 158.631 58.9343 158.397 58.2459 158.397C57.5575 158.397 56.993 158.631 56.5524 159.099C56.1118 159.567 55.8915 160.214 55.8915 161.04C55.8915 161.88 56.1118 162.541 56.5524 163.023C56.993 163.491 57.5575 163.725 58.2459 163.725ZM77.8306 161.082C77.8306 161.109 77.81 161.433 77.7687 162.052H69.6317C69.7969 162.63 70.1136 163.078 70.5817 163.395C71.0636 163.697 71.6625 163.849 72.3784 163.849C72.9154 163.849 73.3766 163.773 73.7621 163.622C74.1614 163.47 74.5607 163.222 74.96 162.878L77.0252 165.026C75.9375 166.238 74.3473 166.843 72.2545 166.843C70.9466 166.843 69.7969 166.596 68.8056 166.1C67.8143 165.604 67.0433 164.916 66.4926 164.035C65.9556 163.154 65.6871 162.155 65.6871 161.04C65.6871 159.939 65.9487 158.954 66.4719 158.087C67.0089 157.206 67.7455 156.517 68.6817 156.022C69.6179 155.526 70.6712 155.278 71.8415 155.278C72.9567 155.278 73.9687 155.512 74.8774 155.98C75.786 156.435 76.502 157.103 77.0252 157.984C77.5621 158.851 77.8306 159.884 77.8306 161.082ZM71.8621 158.066C71.2563 158.066 70.7469 158.238 70.3339 158.583C69.9346 158.927 69.6799 159.395 69.5697 159.987H74.1545C74.0444 159.395 73.7828 158.927 73.3697 158.583C72.9705 158.238 72.4679 158.066 71.8621 158.066ZM91.0811 161.082C91.0811 161.109 91.0604 161.433 91.0191 162.052H82.8822C83.0474 162.63 83.3641 163.078 83.8322 163.395C84.3141 163.697 84.913 163.849 85.6289 163.849C86.1659 163.849 86.6271 163.773 87.0126 163.622C87.4119 163.47 87.8112 163.222 88.2104 162.878L90.2757 165.026C89.188 166.238 87.5978 166.843 85.505 166.843C84.197 166.843 83.0474 166.596 82.0561 166.1C81.0648 165.604 80.2938 164.916 79.743 164.035C79.2061 163.154 78.9376 162.155 78.9376 161.04C78.9376 159.939 79.1992 158.954 79.7224 158.087C80.2593 157.206 80.9959 156.517 81.9322 156.022C82.8684 155.526 83.9217 155.278 85.092 155.278C86.2072 155.278 87.2191 155.512 88.1278 155.98C89.0365 156.435 89.7525 157.103 90.2757 157.984C90.8126 158.851 91.0811 159.884 91.0811 161.082ZM85.1126 158.066C84.5068 158.066 83.9974 158.238 83.5843 158.583C83.1851 158.927 82.9304 159.395 82.8202 159.987H87.405C87.2949 159.395 87.0333 158.927 86.6202 158.583C86.2209 158.238 85.7184 158.066 85.1126 158.066ZM104.481 155.464L99.8549 166.658H95.807L91.2016 155.464H95.2288L97.9136 162.3L100.743 155.464H104.481ZM116.634 161.082C116.634 161.109 116.613 161.433 116.572 162.052H108.435C108.6 162.63 108.917 163.078 109.385 163.395C109.867 163.697 110.466 163.849 111.182 163.849C111.719 163.849 112.18 163.773 112.566 163.622C112.965 163.47 113.364 163.222 113.763 162.878L115.829 165.026C114.741 166.238 113.151 166.843 111.058 166.843C109.75 166.843 108.6 166.596 107.609 166.1C106.618 165.604 105.847 164.916 105.296 164.035C104.759 163.154 104.491 162.155 104.491 161.04C104.491 159.939 104.752 158.954 105.275 158.087C105.812 157.206 106.549 156.517 107.485 156.022C108.421 155.526 109.475 155.278 110.645 155.278C111.76 155.278 112.772 155.512 113.681 155.98C114.59 156.435 115.306 157.103 115.829 157.984C116.366 158.851 116.634 159.884 116.634 161.082ZM110.666 158.066C110.06 158.066 109.55 158.238 109.137 158.583C108.738 158.927 108.483 159.395 108.373 159.987H112.958C112.848 159.395 112.586 158.927 112.173 158.583C111.774 158.238 111.271 158.066 110.666 158.066ZM122.181 156.807C122.581 156.297 123.097 155.918 123.73 155.671C124.377 155.409 125.114 155.278 125.94 155.278V158.81C125.582 158.768 125.286 158.748 125.052 158.748C124.212 158.748 123.551 158.975 123.069 159.429C122.601 159.884 122.367 160.579 122.367 161.515V166.658H118.443V155.464H122.181V156.807Z" fill="black"/>
</svg>
